<?xml version="1.0" encoding="utf-8"?>
<!-- Generator: Adobe Illustrator 24.1.3, SVG Export Plug-In . SVG Version: 6.00 Build 0)  -->
<svg version="1.1" id="Layer_1" xmlns="http://www.w3.org/2000/svg" xmlns:xlink="http://www.w3.org/1999/xlink" x="0px" y="0px"
	 viewBox="0 0 1500 1500" style="enable-background:new 0 0 1500 1500;" xml:space="preserve">
<style type="text/css">
	.st0{fill:#333333;}
	.st1{fill:#FFFFFF;fill-opacity:0;}
	.st2{fill:#FFFFFF;}
	.st3{fill:none;stroke:#00BF14;stroke-width:10;stroke-miterlimit:10;}
</style>
<rect x="-1.5" y="-1.5" class="st0" width="1500.5" height="1500.5"/>
<g transform="translate(10,13.072002410888672)">
	<g>
		<rect x="69.9" y="401.8" class="st1" width="1425" height="670.2"/>
	</g>
	<g transform="translate(10,3)">
		<g transform="translate(0,0)">
			<g transform="scale(1)">
				<g>
					<path class="st2" d="M575.2,419.5c-36.1,0-78.5,90.6-126.2,192.3c-19.8,41.8-40.5,85.7-61.3,125.7c-15.3-0.5-30.2-0.5-43.9-0.5
						c-62.1,0-107.6,2.6-111.2,10.7c-0.5,0.5-0.5,1.3-0.5,1.6c0,0.8,0,1.6,0.5,2.6c2.1,3.7,7.5,6.5,11.2,6.5c2.1,0,3.7-0.5,4.1-2.1
						c2.9-4.9,37.7-7,87.8-7c14,0,29.4,0,46,0.5c-41.8,76.1-83.9,135.3-125.3,135.3h-1c-43.4-1.3-74-41-91.4-72l-2.6-4.6
						c-11.6-22.3-16.1-40.5-16.1-55.1c0-34.3,24.9-48.4,36.9-48.4c3.4,0,5.4,0.8,6.2,2.6l0.5,0.5c2.1,3.7,7,5.7,10.4,5.7
						c2.6,0,4.6-1.3,4.6-3.4c0-0.8,0-1.6-0.8-2.9l-0.5-0.8c-5.4-9.9-15.6-14.8-26.8-14.8c-21.5,0-46.8,19-46.8,55.4
						c0,13.2,3.4,28.9,11.6,46.8c19,47.6,63.4,99.3,116.6,103.4c1.6,0,3.4,0.5,4.9,0.5c50.9,0,95.6-66.2,139-147.6l218.8,6.5v20.3
						c0,45.5,1.6,81.9,8.6,98.5l0.5,0.8c2.1,4.1,7,6.2,11.2,6.2c2.6,0,4.1-0.8,4.1-2.9c0-0.8,0-1.6-0.5-2.6
						c-6.2-14.8-8.3-49.1-8.3-92.2c0-9.1,0.5-18.2,0.5-27.8c26,0.8,48.4,1.3,65.4,1.3h14.8c3.4,0,4.9-1.6,4.9-3.7
						c0-0.8-0.5-1.6-0.8-2.6c-1.6-3.4-6.2-6.5-11.2-6.5h-15.2c-15.3,0-34.8-0.5-58.2-0.8c0.5-29.8,1.3-63.4,1.3-97.2
						c0-76.1-3.4-153.8-20.7-193.6c-0.8-2.9-2.6-5.7-4.1-8.3c-8.6-15.6-20.3-25.2-35.6-26.5h-1.4V419.5z M601.2,452.6
						c16.6,37.7,19.8,112.5,19.8,186.1c0,37.2-0.8,73.6-1.3,105.5L408,737.9c19.5-38,38.5-78.5,56.6-117.4
						c46.3-99.7,87.8-188.1,116.2-188.1h1.3C590,433.6,599.5,444.7,601.2,452.6z M871.1,765.8c2.6-2.9,7-7,7-11.2
						c0-0.8-0.5-2.1-0.8-2.9c-2.1-2.9-6.5-5.7-10.4-5.7c-4.1,0-6.2,3.7-7.5,5.7c-10.7,14-47.1,34.3-76.1,34.3h-1.6
						c-12.4-0.5-19.8-6.2-23.1-12.8c-1.6-3.4-2.9-6.5-2.9-9.9V762c11.6,5.4,23.1,7.8,34.3,7.8c20.3,0,29.4-8.3,29.4-17.7
						c0-2.6-0.8-5.4-2.6-8.3c-4.9-9.6-18.2-17.7-36.9-17.7h-1.3c-26.8,0.5-39.3,14.8-39.3,30.6c0,5.7,1.6,11.6,4.6,16.9
						c9.6,16.9,28.6,25.2,47.1,25.2C825.7,798.8,862.5,775.2,871.1,765.8z M801.3,743c0.8,1.6,1.3,2.9,1.3,4.1
						c0,5.7-7.5,10.4-19,10.4c-7,0-15.6-1.6-24.4-5.7c6.2-8.6,19.8-12.8,30.2-12.8C795.3,738.8,799.7,740.1,801.3,743z M942.4,803.3
						c31,0,54.3-29.8,67-46.3c0.8-0.8,0.8-1.6,0.8-2.6c0-0.8,0-1.6-0.8-2.6c-1.6-3.4-7-6.5-10.7-6.5c-1.6,0-3.4,0.5-4.1,1.6
						c-10.7,14-33,43.4-59.2,43.4c-24.9,0-41-16.1-50.9-34.3c34.8-27.8,56.3-83.6,57.9-126.2v-5.7c0-10.4-0.8-19.8-4.1-28.1
						c-7.5-16.9-18.2-29.8-38.5-29.8h-2.6c-33,1.6-50.1,46-50.1,95.9c0,31,6.5,64.1,20.3,90.2l0.8,1.3
						C882.9,780.2,907.3,803.3,942.4,803.3z M907.3,579.3c2.6,0,4.9,0.5,6.2,1.3c2.9,1.3,4.9,3.7,6.5,7c6.2,10.7,6.5,28.9,6.5,36.9
						c-2.1,38-20.3,88.1-50.1,115.9c-8.6-21.9-13.2-49.1-13.2-74.5c0-44.7,13.7-85.2,41.8-86.5L907.3,579.3L907.3,579.3z
						 M1003.6,727.2c1.6,0.8,2.9,0.8,4.1,0.8c6.2,0,5.4-9.1,5.7-16.6v-0.8c0-0.8-0.5-1.6-0.8-2.6c-2.1-3.4-7-6.2-10.7-6.2
						c-2.6,0-4.1,0.8-4.6,3.4c0,4.1-0.8,8.3-0.8,11.6c0,2.1,0.5,4.1,1.3,5.7C998.6,724.3,1000.8,726.1,1003.6,727.2z M1078.4,757
						c0.5-0.8,0.8-1.3,0.8-2.1s-0.5-1.6-0.8-2.6c-0.8-1.6-2.6-3.4-4.6-4.6c-2.6-1.3-4.1-2.1-5.7-2.1c-6.5,0-9.6,12-25.2,23.6
						c-7,4.9-12.8,7-17.4,7c-6.2,0-10.4-3.4-13.2-7.8c-1.6-3.4-2.6-6.5-2.6-9.9c0-2.1,0.5-4.1,0.8-5.7c0.5-0.5,0.5-0.8,0.5-1.6
						s-0.5-1.6-0.8-2.6c-1.6-3.4-7-6.2-10.7-6.2c-2.1,0-3.4,0.8-4.1,2.6c-0.8,2.6-1.6,5.4-1.6,8.3c0,4.9,1.6,10.7,4.6,15.6
						c6.2,11.2,18.7,20.3,33.5,20.3C1046.3,789.3,1062.8,780.6,1078.4,757z M1088.8,791.8c27.8,0,46-36.1,63.7-39.7l0.5,0.5
						c5.4,9.6,4.1,55.1,4.6,55.4l-2.6,1.3c-41.8,26-81.1,52.2-81.1,81.1c0,5.4,1.3,11.2,4.6,16.9l1.3,2.6
						c12.8,20.3,41.8,35.6,70.4,47.1c1.6,0.5,2.9,0.8,4.1,0.8c12.8,0,13.7-28.6,14.8-41c2.6-24.9,4.1-58.2,4.1-89.4V817
						c30.6-19,60-38.9,73.6-60c0.5-0.8,0.8-1.3,0.8-2.1s-0.5-1.6-0.8-2.6c-1.6-3.4-7-6.5-11.2-6.5c-1.6,0-2.9,0.8-3.7,2.1
						c-10.7,16.9-34,33-58.7,49.6c0-9.1-0.5-17.4-0.5-24.4c-0.8-14.8-7.8-33.5-25.7-33.5c-8.3,0-17.7,4.6-26.5,13.7
						c-4.9,4.9-24.4,25.7-38.9,25.7c-2.9,0-4.9-0.8-7-2.9c-0.5-0.8-0.5-2.1-0.5-3.4c0-5.7,4.1-15.3,6.5-18.2
						c0.5-0.8,0.8-1.3,0.8-2.1s-0.5-1.6-0.8-2.6c-2.1-3.7-7.5-6.5-11.2-6.5c-1.6,0-3.4,0.5-4.1,1.6c-3.7,4.9-7.5,12.8-7.5,21.1
						c0,3.7,0.8,7.5,2.9,11.2C1066.4,786.4,1078.4,791.8,1088.8,791.8z M1148.8,937.8v0.8c0,1.3,0.5,2.9,1.3,3.7l1.3,2.9
						c-17.4-6.5-48.8-20.7-57.9-38c-2.6-4.1-3.4-8.3-3.4-12.4c0-23.6,34.8-46,67.3-67c-0.8,28.6-2.1,59.2-4.1,82.3L1148.8,937.8z
						 M1250.1,796.3c23.6,0,78.2-48,78.2-48c0.8,0.5,1.3,1.3,2.1,2.6c2.1,3.7,3.7,9.6,7,15.3c6.2,11.2,16.6,22.8,37.2,23.1h0.5
						c18.7,0,32.7-20.3,39.3-30.6c1.3-1.3,1.6-2.9,1.6-4.1c0-0.8-0.5-2.1-0.8-2.9c-2.1-3.4-7-5.7-10.7-5.7c-1.6,0-3.4,0.5-4.1,1.6
						c-5.7,9.6-18.7,28.9-31.9,28.9h-0.5c-8.6-0.5-12.8-6.2-16.6-12.8l-5.7-10.4c-5.4-9.9-12-16.9-21.1-16.9
						c-4.6,0-9.1,1.6-14.8,5.7c-6.5-12.4-19.8-20.3-34-20.3c-17.7,0-34.3,12.8-41,21.9c-4.9,7.5-7.5,16.6-7.5,24.9
						c0,5.7,1.3,11.6,3.7,16.1c3.4,6.2,9.1,10.7,17.7,11.6L1250.1,796.3L1250.1,796.3z M1282.8,734.7c6.2,0,9.9,2.9,12.4,7
						c1.3,2.6,2.1,5.7,2.9,8.6c-16.9,13.2-41,31.4-53.3,32.7c-1.3-3.4-1.6-6.2-1.6-9.6C1243.1,753.7,1264.3,734.7,1282.8,734.7z"/>
				</g>
			</g>
		</g>
		<g transform="translate(5,83.05999755859375)">
			<rect x="158.3" y="933.7" class="st2" width="410.1" height="6.9"/>
			<rect x="966.5" y="933.7" class="st2" width="410.1" height="6.9"/>
			<g transform="translate(62.48000144958496,0)">
				<g transform="scale(1)">
					<path class="st2" d="M543,964.3v-48.5h-16.3v-5.7h39.7v5.7H550v48.5H543z M593.4,942.3h16.3l-2.6-8.3c-1-3-1.9-6.1-2.9-9.1
						c-0.8-3-1.8-6.1-2.6-9.3l0,0h-0.3c-0.8,3.2-1.8,6.2-2.6,9.3c-1,3-1.9,6.1-2.9,9.1l0,0L593.4,942.3z M616.5,964.3l-5.1-16.6
						h-19.8l-5.1,16.6h-7l18.4-54.3h7.8l18.4,54.3H616.5z M645.3,964.3V910h8.1l10.5,29l4,11.2h0.3l3.8-11.2l10.4-29h8.1v54.3H684
						v-29.8c0-2.4,0.2-5.1,0.3-8.1c0.2-2.9,0.3-5.6,0.6-8l0,0h-0.3l-4.5,12.1l-10.4,28.4h-4l-10.5-28.4l-4.3-12.1h-0.3
						c0.2,2.4,0.3,5.1,0.6,8c0.2,2.9,0.3,5.6,0.3,8.1l0,0v29.8H645.3z M726,942.3h16.3l-2.6-8.3c-1-3-1.9-6.1-2.9-9.1
						c-0.8-3-1.8-6.1-2.6-9.3l0,0H734c-0.8,3.2-1.8,6.2-2.6,9.3c-0.8,3-1.8,6.1-2.9,9.1l0,0L726,942.3z M749,964.3l-5.1-16.6h-19.8
						l-5.3,16.6h-7l18.4-54.3h7.8l18.4,54.3H749z M778,964.3V910h7l19.6,34l5.9,11.2h0.3c-0.2-2.7-0.3-5.6-0.5-8.6
						c-0.2-2.9-0.3-5.9-0.3-8.6l0,0v-28.1h6.5v54.3h-7.2L789.8,930l-5.9-11.2h-0.3c0.2,2.7,0.5,5.6,0.6,8.5c0.2,2.9,0.3,5.7,0.3,8.6
						l0,0v28.4H778L778,964.3z M842.2,937.2L842.2,937.2c0-4.3,0.6-8.3,1.9-11.6c1.3-3.5,3-6.4,5.3-8.8c2.2-2.4,4.8-4.3,7.8-5.6
						s6.4-2.1,10.1-2.1l0,0c3.8,0,6.9,0.6,9.4,2.1c2.6,1.4,4.5,3,6.1,4.6l0,0l-3.8,4.3c-1.4-1.4-3-2.6-4.8-3.5c-1.8-1-4-1.4-6.9-1.4
						l0,0c-2.7,0-5.3,0.5-7.5,1.6s-4.1,2.6-5.6,4.5c-1.6,1.9-2.7,4.1-3.5,6.9c-0.8,2.7-1.3,5.7-1.3,9.1l0,0c0,3.4,0.5,6.5,1.3,9.3
						s1.9,5.1,3.5,7s3.4,3.4,5.6,4.5s4.8,1.6,7.7,1.6l0,0c1.9,0,3.8-0.3,5.6-1c1.8-0.5,3-1.3,4.1-2.4l0,0V942h-11.5v-5.7h17.7v22.8
						c-1.8,1.9-4.1,3.4-7,4.6c-2.9,1.1-6.2,1.8-9.7,1.8l0,0c-3.5,0-6.9-0.6-9.9-1.9c-3-1.3-5.6-3.2-7.7-5.6
						c-2.2-2.4-3.8-5.3-5.1-8.8C842.8,945.5,842.2,941.5,842.2,937.2z"/>
				</g>
			</g>
		</g>
	</g>
</g>
<g>
	<path class="st3" d="M759.5,1084.7c-126.5,65.1-266.4,114.8-387.8,125.9C57.4,1239.3,55.1,750,55.1,750s2.4-489.3,316.8-460.5
		c280.3,25.6,659.7,260,743.3,411.3"/>
	<path class="st3" d="M914.9,992.6c67.6-46.1,124.6-94.2,163.2-138.7"/>
</g>
</svg>
